/* XPM */
static char *g_IconMagnify[] = {
/* columns rows colors chars-per-pixel */
"14 14 94 2",
"   c #0C0C0C",
".  c #1A1B1F",
"X  c #2C2D37",
"o  c #3A404D",
"O  c #3D4557",
"+  c #48404F",
"@  c #4B414D",
"#  c #4F525A",
"$  c #574A56",
"%  c #575D6F",
"&  c #535F73",
"*  c #5A6678",
"=  c #6A6A77",
"-  c #6F7083",
";  c #717890",
":  c #717C90",
">  c #787A95",
",  c #798BAA",
"<  c #788EAB",
"1  c #806568",
"2  c #847766",
"3  c #956F6D",
"4  c #94716A",
"5  c #96706C",
"6  c #957864",
"7  c #A58A6C",
"8  c #D08B58",
"9  c #D38E58",
"0  c #D69057",
"q  c #D4A66A",
"w  c #E2A259",
"e  c #E9A95F",
"r  c #F1A954",
"t  c #F0AA57",
"y  c #E9B26F",
"u  c #EEB368",
"i  c #EEB46B",
"p  c #E6B477",
"a  c #E5B57C",
"s  c #F0B061",
"d  c #808597",
"f  c #9192A4",
"g  c #9DA0BB",
"h  c #A28F83",
"j  c #91AFC9",
"k  c #9DB6DB",
"l  c #A7AECB",
"z  c #AEB1CA",
"x  c #B7B8C8",
"c  c #A7C4CF",
"v  c #ADC0DA",
"b  c #ACD0DC",
"n  c #A6C4E4",
"m  c #ACCCE7",
"M  c #A8CBEA",
"N  c #AFD7EC",
"B  c #B0C7E1",
"V  c #B1D4EB",
"C  c #B7D9EE",
"Z  c #B1DCF6",
"A  c #B1E3FF",
"S  c #B7E8FF",
"D  c #B8E5FF",
"F  c #B9EAFF",
"G  c #BBECFF",
"H  c #BCECFF",
"J  c #BDEFFF",
"K  c #BFECFF",
"L  c #C1C1C7",
"P  c #D3DCEC",
"I  c #CEE3EC",
"U  c #CAECFF",
"Y  c #C3F1FB",
"T  c #C1F2FF",
"R  c #C2F3FF",
"E  c #C5F4FF",
"W  c #C8F5FC",
"Q  c #CBF9FF",
"!  c #D3F8FB",
"~  c #D4FCFE",
"^  c #D4FDFF",
"/  c #D5FDFF",
"(  c #DBF4FF",
")  c #DEF6FF",
"_  c #D9FFFF",
"`  c #DEFFFF",
"'  c #E1EDF1",
"]  c #E3FDFE",
"[  c #E6FFFF",
"{  c #E8FFFF",
"}  c #F1FFFF",
"|  c #F6FFFF",
" . c gray100",
".. c None",
/* pixels */
"............................",
"..........- z v M v , % ....",
"........L l P ) J S Z < # ..",
"........x B ( U F J Y N O ..",
"........g C D G W _ _ W & ..",
"........> V A T _ { ] ! * ..",
"........= k H E ` } | P o ..",
"........7 f M Y ! ] ' , . ..",
"....y s t 7 > j m c ; X ....",
"..p u r 0 = ................",
"a i r 9 3 + ................",
"q w 0 5 @ ..................",
"2 6 4 $ ....................",
"............................"
};
