/* XPM */
static char * open_xpm[] = {
"16 16 54 1",
" 	c None",
".	c #008B00",
"+	c #009500",
"@	c #00A100",
"#	c #00A400",
"$	c #007F00",
"%	c #00A700",
"&	c #00A200",
"*	c #D6AD29",
"=	c #00A300",
"-	c #009E00",
";	c #FEF8D0",
">	c #FDF2A4",
",	c #FEF2A5",
"'	c #FDF2A6",
")	c #FEF3A7",
"!	c #FDED7F",
"~	c #FEEE81",
"{	c #FDEE83",
"]	c #FDEE85",
"^	c #FEEE85",
"/	c #FDEE86",
"(	c #FDE960",
"_	c #FDEA65",
":	c #FEE74B",
"<	c #FEE852",
"[	c #FEEA60",
"}	c #FEEA61",
"|	c #FEEA5D",
"1	c #FEE959",
"2	c #C09B24",
"3	c #FEE95B",
"4	c #FEEC71",
"5	c #FEED75",
"6	c #FEED76",
"7	c #FEEB6B",
"8	c #FEEA64",
"9	c #755F16",
"0	c #FEEB68",
"a	c #FEEF86",
"b	c #FEEF87",
"c	c #FEED7B",
"d	c #FEEC72",
"e	c #BC9823",
"f	c #FEF08E",
"g	c #FEF092",
"h	c #FEF194",
"i	c #FEEE7C",
"j	c #735D16",
"k	c #FEF195",
"l	c #FEF19A",
"m	c #FEF29C",
"n	c #FEEE83",
"o	c #BD9823",
"                ",
"         .+@# @ ",
"        $    %& ",
"  ***       &=- ",
" *;;;*          ",
"*>,'))*****     ",
"*!~{]^/^]{*     ",
"*(_***********  ",
"*:<*[[}[|1<::2  ",
"*3*[45654783*9  ",
"*0*[~aba~cd0e   ",
"**[afghgfai*j   ",
"**[fklmlkfne    ",
"**********o9    ",
"                ",
"                "};
