/* XPM */
static char * save_xpm[] = {
"16 16 28 1",
" 	c None",
".	c #135BC3",
"+	c #9EC9F6",
"@	c #FEFEFE",
"#	c #8DC0F4",
"$	c #D4D4D4",
"%	c #5EA6F0",
"&	c #519FEF",
"*	c #4497EE",
"=	c #3891ED",
"-	c #2D8BEC",
";	c #308DED",
">	c #328EED",
",	c #348FED",
"'	c #3590ED",
")	c #3690ED",
"!	c #3791ED",
"~	c #358FED",
"{	c #3992ED",
"]	c #3D94EE",
"^	c #ABABAB",
"/	c #808080",
"(	c #FFFFFF",
"_	c #3C93EE",
":	c #3F95EE",
"<	c #2B2B2B",
"[	c #3E94EE",
"}	c #4196EE",
"  ............  ",
" .+@@@@@@@@@@+. ",
" .#$$$$$$$$$$#. ",
" .%@@@@@@@@@@%. ",
" .&$$$$$$$$$$&. ",
" .*@@@@@@@@@@*. ",
" .=$$$$$$$$$$=. ",
" .-;>,')!!,>;-. ",
" .>~>,')!!,>~>. ",
" .){........{). ",
" .{].^/^(((.]{. ",
" ._:.^<^(((.:_. ",
" .[}.^/^(((.}[. ",
"  ............  ",
"                ",
"                "};
