/* XPM */
static char * x_xpm[] = {
"16 16 172 2",
"  	c None",
". 	c #E14848",
"+ 	c #551A1A",
"@ 	c #E14747",
"# 	c #F9E1E1",
"$ 	c #FAE0E0",
"% 	c #FAE1E1",
"& 	c #FBE1E1",
"* 	c #E66868",
"= 	c #E14343",
"- 	c #F5C3C3",
"; 	c #F6C2C2",
"> 	c #F7C6C6",
", 	c #F9D9D9",
"' 	c #FAD8D8",
") 	c #F9D4D4",
"! 	c #F8C2C2",
"~ 	c #F8CBCB",
"{ 	c #F8CFCF",
"] 	c #E55F5F",
"^ 	c #000000",
"/ 	c #E04040",
"( 	c #F1A7A7",
"_ 	c #F3A6A6",
": 	c #F5ABAB",
"< 	c #FDF4F4",
"[ 	c #FFFFFF",
"} 	c #FEFCFC",
"| 	c #F7B3B3",
"1 	c #FBE2E2",
"2 	c #F6BEBE",
"3 	c #F4A7A7",
"4 	c #F2A7A7",
"5 	c #E35757",
"6 	c #DF3C3C",
"7 	c #EE8989",
"8 	c #F08888",
"9 	c #F28989",
"0 	c #F8BEBE",
"a 	c #FEFEFE",
"b 	c #FBE0E0",
"c 	c #FEF8F8",
"d 	c #FADBDB",
"e 	c #F28E8E",
"f 	c #F18989",
"g 	c #E24D4D",
"h 	c #DC3939",
"i 	c #E96C6C",
"j 	c #EC6D6D",
"k 	c #EE6D6D",
"l 	c #F07878",
"m 	c #F9F0F0",
"n 	c #FCFCFC",
"o 	c #FBF8F8",
"p 	c #EF6E6E",
"q 	c #EA6D6D",
"r 	c #DF4444",
"s 	c #D93636",
"t 	c #E45555",
"u 	c #E85656",
"v 	c #EA5858",
"w 	c #ED5A5A",
"x 	c #F19B9B",
"y 	c #F8F8F8",
"z 	c #F9F9F9",
"A 	c #F5C1C1",
"B 	c #EB5959",
"C 	c #E85757",
"D 	c #E55555",
"E 	c #DB3D3D",
"F 	c #D33232",
"G 	c #DD3F3F",
"H 	c #E34545",
"I 	c #E64747",
"J 	c #E95E5E",
"K 	c #F2DFDF",
"L 	c #F3F3F3",
"M 	c #F3F0F0",
"N 	c #EB8080",
"O 	c #E44545",
"P 	c #DE4040",
"Q 	c #D53434",
"R 	c #CE3030",
"S 	c #D52F2F",
"T 	c #DA3232",
"U 	c #DD3737",
"V 	c #E47E7E",
"W 	c #EBE9E9",
"X 	c #ECECEC",
"Y 	c #E8B3B3",
"Z 	c #DF3D3D",
"` 	c #DE3838",
" .	c #DA3333",
"..	c #D62F2F",
"+.	c #CF2F2F",
"@.	c #C92D2D",
"#.	c #D02828",
"$.	c #D43030",
"%.	c #D73535",
"&.	c #DB4949",
"*.	c #E5D5D5",
"=.	c #E6E6E6",
"-.	c #E6E2E2",
";.	c #DC5F5F",
">.	c #D73636",
",.	c #D53030",
"'.	c #D02929",
").	c #CA2C2C",
"!.	c #C52E2E",
"~.	c #CC3030",
"{.	c #D03838",
"].	c #D43F3F",
"^.	c #DB9191",
"/.	c #E2E2E2",
"(.	c #DDB2B2",
"_.	c #E1DFDF",
":.	c #DEB7B7",
"<.	c #D44747",
"[.	c #D13A3A",
"}.	c #CC3131",
"|.	c #C62D2D",
"1.	c #C32D2D",
"2.	c #C93535",
"3.	c #CE3D3D",
"4.	c #D14848",
"5.	c #DDCECE",
"6.	c #DFDFDF",
"7.	c #DED4D4",
"8.	c #D76161",
"9.	c #DECACA",
"0.	c #DED9D9",
"a.	c #D36B6B",
"b.	c #CE3F3F",
"c.	c #CA3636",
"d.	c #C42E2E",
"e.	c #C32E2E",
"f.	c #C93737",
"g.	c #CC4040",
"h.	c #D26464",
"i.	c #D89797",
"j.	c #D89A9A",
"k.	c #D68181",
"l.	c #D55959",
"m.	c #D57676",
"n.	c #D99B9B",
"o.	c #D47C7C",
"p.	c #CD4141",
"q.	c #C93939",
"r.	c #C42F2F",
"s.	c #C12E2E",
"t.	c #C63737",
"u.	c #CA4040",
"v.	c #CD4747",
"w.	c #D04F4F",
"x.	c #D15454",
"y.	c #D25757",
"z.	c #D25959",
"A.	c #D25858",
"B.	c #D15555",
"C.	c #CE4A4A",
"D.	c #CB4141",
"E.	c #C63939",
"F.	c #C22F2F",
"G.	c #491111",
"H.	c #C33232",
"I.	c #C43535",
"J.	c #C53737",
"K.	c #C63A3A",
"L.	c #C53636",
"M.	c #C33333",
"N.	c #C33030",
"O.	c #641818",
"  . . . . . . . . . . . . . +   ",
"@ # # $ % % & & & % % $ # # *   ",
"= - ; > , ' ) ! ~ ' , { ; - ] ^ ",
"/ ( _ : < [ } | 1 [ } 2 3 4 5 ^ ",
"6 7 8 9 0 a a b c a d e f 7 g ^ ",
"h i j k l m n n n o f p j q r ^ ",
"s t u v w x y z z A w B C D E ^ ",
"F G = H I J K L M N I O = P Q ^ ",
"R S T U 6 V W X X Y Z `  ...+.^ ",
"@.#.$.%.&.*.=.=.=.-.;.>.,.'.).^ ",
"!.~.{.].^././.(._./.:.<.[.}.|.^ ",
"1.2.3.4.5.6.7.8.9.6.0.a.b.c.d.^ ",
"e.f.g.h.i.j.k.l.m.n.i.o.p.q.r.^ ",
"s.t.u.v.w.x.y.z.A.B.w.C.D.E.F.^ ",
"G.F.H.I.J.E.K.K.K.E.t.L.M.N.O.  ",
"    ^ ^ ^ ^ ^ ^ ^ ^ ^ ^ ^ ^     "};
