/* XPM */
static const char* s_treeWndCtrlCollapsedXpm[] = {
"9 9 5 1",
"X c #000000",
". c #ffffff",
"- c #808080",
"| c #808080",
"+ c #808080",

"+-------+",
"|.......|",
"|...X...|",
"|...X...|",
"|.XXXXX.|",
"|...X...|",
"|...X...|",
"|.......|",
"+-------+",
};
