/* XPM */
static char * agt_stop_xpm[] = {
"16 16 151 2",
"  	c None",
". 	c #F7B9B9",
"+ 	c #FFC0C5",
"@ 	c #FFC0C8",
"# 	c #FFC2CB",
"$ 	c #FFC2CA",
"% 	c #FFC2C5",
"& 	c #FFC4C4",
"* 	c #F4AAAA",
"= 	c #FF7676",
"- 	c #FF7374",
"; 	c #FF7A7E",
"> 	c #FF7C81",
", 	c #FF7E80",
"' 	c #FF7F7F",
") 	c #FF7A7A",
"! 	c #FF8080",
"~ 	c #E99B9B",
"{ 	c #FF5C5C",
"] 	c #E65050",
"^ 	c #CD5B5B",
"/ 	c #FA5A5A",
"( 	c #FF6766",
"_ 	c #FF6868",
": 	c #F95D5D",
"< 	c #CC5F5F",
"[ 	c #E85858",
"} 	c #FF6A6A",
"| 	c #D68C8C",
"1 	c #E64545",
"2 	c #D53D3D",
"3 	c #D3A2A2",
"4 	c #EAE8E8",
"5 	c #D06868",
"6 	c #F54141",
"7 	c #F24141",
"8 	c #CF7171",
"9 	c #EAEAEA",
"0 	c #D29C9C",
"a 	c #D64848",
"b 	c #E55555",
"c 	c #BD3535",
"d 	c #BF2727",
"e 	c #CF7070",
"f 	c #FFFFFF",
"g 	c #F1EFEF",
"h 	c #C85959",
"i 	c #CA6363",
"j 	c #F4F4F4",
"k 	c #D06C6C",
"l 	c #C83333",
"m 	c #C93E3E",
"n 	c #8B2626",
"o 	c #952222",
"p 	c #A92626",
"q 	c #DEA4A4",
"r 	c #FDFCFC",
"s 	c #FDFDFD",
"t 	c #E39B9B",
"u 	c #BE2727",
"v 	c #B02626",
"w 	c #AC2626",
"x 	c #5A1D1D",
"y 	c #6E1B1B",
"z 	c #871717",
"A 	c #9E1414",
"B 	c #D59393",
"C 	c #F2F4F4",
"D 	c #F4F6F6",
"E 	c #F1F3F3",
"F 	c #D88B8B",
"G 	c #B21414",
"H 	c #A51919",
"I 	c #921B1B",
"J 	c #841C1C",
"K 	c #440606",
"L 	c #510505",
"M 	c #680606",
"N 	c #790000",
"O 	c #A24A4A",
"P 	c #E0E0E0",
"Q 	c #E2E3E3",
"R 	c #E2E4E4",
"S 	c #DEDCDC",
"T 	c #A24242",
"U 	c #8C0000",
"V 	c #850606",
"W 	c #6D0505",
"X 	c #5E0606",
"Y 	c #6A0101",
"Z 	c #710000",
"` 	c #750000",
" .	c #904444",
"..	c #D0D0D1",
"+.	c #D4D6D6",
"@.	c #D8DDDE",
"#.	c #D7DDDD",
"$.	c #D4D6D7",
"%.	c #CDCCCC",
"&.	c #913A3B",
"*.	c #7C0000",
"=.	c #760000",
"-.	c #710101",
";.	c #920606",
">.	c #8E0000",
",.	c #A04343",
"'.	c #C3C9C9",
").	c #C3C6C7",
"!.	c #CBD3D3",
"~.	c #CD7F7F",
"{.	c #CF8787",
"].	c #C9D3D3",
"^.	c #C4C7C7",
"/.	c #C1C5C5",
"(.	c #9F3A3A",
"_.	c #910000",
":.	c #950808",
"<.	c #A80C0C",
"[.	c #B93232",
"}.	c #CEB4B4",
"|.	c #BFCFD0",
"1.	c #D78282",
"2.	c #C70707",
"3.	c #C90B0B",
"4.	c #BDD0D0",
"5.	c #D1ADAE",
"6.	c #BF2A2A",
"7.	c #AD0D0D",
"8.	c #CE0F0F",
"9.	c #D63636",
"0.	c #E47171",
"a.	c #DE1717",
"b.	c #E11717",
"c.	c #E21616",
"d.	c #E21A1A",
"e.	c #E67474",
"f.	c #DB2F2F",
"g.	c #D50F0F",
"h.	c #F01D1D",
"i.	c #EF1818",
"j.	c #F52222",
"k.	c #F82323",
"l.	c #F92424",
"m.	c #F82121",
"n.	c #F41616",
"o.	c #F51D1D",
"p.	c #FA2828",
"q.	c #FF2929",
"r.	c #FF2B2B",
"s.	c #FE2A2A",
"t.	c #FA2929",
"                                ",
"        . + @ # $ % &           ",
"      * = - ; > , ' ) !         ",
"    ~ { ] ^ / ( _ : < [ }       ",
"  | 1 2 3 4 5 6 7 8 9 0 a b     ",
"  c d e f f g h i j f f k l m   ",
"  n o p q f f r s f f t u v w   ",
"  x y z A B C D D E F G H I J   ",
"  K L M N O P Q R S T U V W X   ",
"  Y Z `  ...+.@.#.$.%.&.*.=.-.  ",
"  ;.>.,.'.).!.~.{.].^./.(._.:.  ",
"    <.[.}.|.1.2.3.F 4.5.6.7.    ",
"      8.9.0.a.b.c.d.e.f.g.      ",
"        h.i.j.k.l.m.n.o.        ",
"          p.q.r.r.s.t.          ",
"                                "};
