/* XPM */
static char * agt_update_critical_xpm[] = {
"16 16 95 2",
"  	c None",
". 	c #FFBF5D",
"+ 	c #FDBB54",
"@ 	c #D39340",
"# 	c #FBB54F",
"$ 	c #FFBD4B",
"% 	c #ECAC56",
"& 	c #EF9E35",
"* 	c #FBA42D",
"= 	c #FDB442",
"- 	c #D29343",
"; 	c #E7A041",
"> 	c #F2CF93",
", 	c #F7CA81",
"' 	c #FFAB2A",
") 	c #D68826",
"! 	c #EDAA4A",
"~ 	c #E49430",
"{ 	c #FCF7EE",
"] 	c #FCF4E4",
"^ 	c #FC9314",
"/ 	c #FEAC2C",
"( 	c #DC9742",
"_ 	c #EA9C37",
": 	c #E48E23",
"< 	c #FCF7EC",
"[ 	c #FBF3E5",
"} 	c #F07204",
"| 	c #FF8A01",
"1 	c #E27B0F",
"2 	c #F1A742",
"3 	c #EC972C",
"4 	c #EE8E1B",
"5 	c #FEF8F3",
"6 	c #FCF1E1",
"7 	c #E85600",
"8 	c #FE7B00",
"9 	c #FF970A",
"0 	c #E49B3C",
"a 	c #F5A230",
"b 	c #F79D26",
"c 	c #FA8003",
"d 	c #FFF8EE",
"e 	c #FEF4E8",
"f 	c #F96400",
"g 	c #FC8000",
"h 	c #FF9003",
"i 	c #E88010",
"j 	c #FAAA39",
"k 	c #FA9619",
"l 	c #FE8601",
"m 	c #FF7500",
"n 	c #F99310",
"o 	c #F98E0E",
"p 	c #FF7A01",
"q 	c #FF8601",
"r 	c #FF8A03",
"s 	c #FF9C0F",
"t 	c #EF992B",
"u 	c #FC8A08",
"v 	c #FF8400",
"w 	c #FF900A",
"x 	c #FE9311",
"y 	c #FCF8EE",
"z 	c #FCF5E5",
"A 	c #FE9510",
"B 	c #FF930E",
"C 	c #FF8B06",
"D 	c #EC810D",
"E 	c #FB8101",
"F 	c #FE7E00",
"G 	c #FF920D",
"H 	c #FFA021",
"I 	c #FFA629",
"J 	c #FFD798",
"K 	c #FFD38C",
"L 	c #FFA92D",
"M 	c #FFA324",
"N 	c #FF9310",
"O 	c #FF8E08",
"P 	c #FF960A",
"Q 	c #F27600",
"R 	c #FF8300",
"S 	c #FF9507",
"T 	c #FFAA21",
"U 	c #FFBD41",
"V 	c #FFCA5F",
"W 	c #FFCF68",
"X 	c #FFCD6A",
"Y 	c #FFC85F",
"Z 	c #FFBB42",
"` 	c #FFAA25",
" .	c #FF960B",
"..	c #FF9104",
"+.	c #F88707",
"                                ",
"                                ",
"              . +               ",
"            @ # $               ",
"            % & * =             ",
"          - ; > , ' )           ",
"          ! ~ { ] ^ /           ",
"        ( _ : < [ } | 1         ",
"        2 3 4 5 6 7 8 9         ",
"      0 a b c d e f g h i       ",
"      j k l m n o p q r s       ",
"    t u v w x y z A B C 9 D     ",
"    E F G H I J K L M N O P     ",
"  Q R S T U V W X Y Z `  ...+.  ",
"                                ",
"                                "};
