/* XPM */
static char * agt_action_success_xpm[] = {
"16 16 44 1",
" 	c None",
".	c #BDD7BA",
"+	c #5D9E56",
"@	c #B9D7B6",
"#	c #5A9F52",
"$	c #41993A",
"%	c #519349",
"&	c #B7DCB4",
"*	c #5AB251",
"=	c #149E06",
"-	c #17950B",
";	c #B7E3B3",
">	c #60C455",
",	c #25B715",
"'	c #20A313",
")	c #BADDB5",
"!	c #AEDAA9",
"~	c #AAE2A5",
"{	c #6AD060",
"]	c #37C928",
"^	c #2FB022",
"/	c #79D16F",
"(	c #A3DF9D",
"_	c #9FDF98",
":	c #A0E599",
"<	c #74DB69",
"[	c #49D839",
"}	c #3DC231",
"|	c #5FD753",
"1	c #91E488",
"2	c #96E58E",
"3	c #A5EA9F",
"4	c #7CE771",
"5	c #59E74A",
"6	c #4CD63F",
"7	c #5EE94F",
"8	c #84EF78",
"9	c #84F279",
"0	c #67F558",
"a	c #56E74A",
"b	c #6FFE60",
"c	c #78FF69",
"d	c #65F058",
"e	c #81EE77",
"                ",
"                ",
"                ",
"            .+  ",
"           @#$% ",
"          &*=-  ",
"         ;>,'   ",
"  )!    ~{]^    ",
"  /(_  :<[}     ",
"   |123456      ",
"    7890a       ",
"     bcd        ",
"      e         ",
"                ",
"                ",
"                "};
