/* XPM */
static char * paste_xpm[] = {
"16 16 37 1",
" 	c None",
".	c #1476DD",
"+	c #AC8500",
"@	c #C0C0C0",
"#	c #FFE899",
"$	c #FFDC66",
"%	c #FFD133",
"&	c #96C5F5",
"*	c #FFC600",
"=	c #89BDF4",
"-	c #FAFAFA",
";	c #89BEF4",
">	c #7DB7F2",
",	c #F6F6F6",
"'	c #7EB7F3",
")	c #CEE0F7",
"!	c #72B1F1",
"~	c #F4F4F4",
"{	c #73B1F2",
"]	c #60A7F0",
"^	c #F1F1F1",
"/	c #F0F0F0",
"(	c #EFEFEF",
"_	c #EDEDED",
":	c #59A3F0",
"<	c #EEEEEE",
"[	c #ECECEC",
"}	c #54A1F0",
"|	c #EAEAEA",
"1	c #EBEBEB",
"2	c #5EA6F0",
"3	c #61A8F1",
"4	c #64A9F1",
"5	c #6CAEF2",
"6	c #6DAEF2",
"7	c #69ACF1",
"8	c #67ABF1",
"     ....       ",
"  ++.@@@@.++    ",
" +##......##+   ",
" +$$$$$$$$$$+   ",
" +%%%&&&&&&%+   ",
" +***=----;;+   ",
" +***>,&&,')>   ",
" +***!~~~~{{!!  ",
" +***]^&&&/(_]  ",
" +***:////(<[:  ",
" +***}_&&&&&|}  ",
" +***:_<<<_[1:  ",
" +***2<&&&&&_2  ",
"  +++3<<<<<<[3  ",
"     456665784  ",
"                "};
