/* XPM */
static char * cut_xpm[] = {
"16 16 30 1",
" 	c None",
".	c #7F7F7F",
"+	c #666666",
"@	c #7B7B7B",
"#	c #787878",
"$	c #6C6C6C",
"%	c #636363",
"&	c #7A7A7A",
"*	c #767676",
"=	c #6B6B6B",
"-	c #626262",
";	c #737373",
">	c #686868",
",	c #1372D6",
"'	c #1476DD",
")	c #1169C5",
"!	c #0F58A6",
"~	c #1164BC",
"{	c #1373D7",
"]	c #0F5AA9",
"^	c #1165BD",
"/	c #1371D4",
"(	c #1165BE",
"_	c #126BC8",
":	c #0F5DAE",
"<	c #1370D3",
"[	c #126AC7",
"}	c #0F5AAA",
"|	c #1063BB",
"1	c #1062B8",
"    .      .    ",
"    .+    @.    ",
"    #.    .$    ",
"     .%  &.     ",
"     *.  .=     ",
"      .-;.      ",
"      *..>      ",
"       ..       ",
"     ,')!')     ",
"    ,' '' '~    ",
"   {'  )]  '^   ",
"   /(  ''  _:   ",
"   <' '[}' '|   ",
"    ^'_  1'_    ",
"                ",
"                "};
