/* XPM */
static char * icon_xpm[] = {
"16 16 48 1",
" 	c None",
".	c #DCC86E",
"+	c #E2CD71",
"@	c #FCF7DF",
"#	c #D3BE5F",
"$	c #F9EEBF",
"%	c #FAEFBF",
"&	c #C8B24E",
"*	c #F7E69F",
"=	c #F7E79F",
"-	c #000000",
";	c #F5E082",
">	c #F6E081",
",	c #F5E080",
"'	c #F6E080",
")	c #F5DF7F",
"!	c #F3D966",
"~	c #F4D965",
"{	c #F3D863",
"]	c #F4D962",
"^	c #F3D861",
"/	c #F1D34C",
"(	c #F1D24A",
"_	c #F2D348",
":	c #F1D247",
"<	c #F0D044",
"[	c #F0CD33",
"}	c #F0CC2E",
"|	c #EFCA26",
"1	c #EFC71A",
"2	c #EEC50D",
"3	c #F0CB26",
"4	c #F0CA24",
"5	c #EFC719",
"6	c #EFC715",
"7	c #F08D2A",
"8	c #F08D2B",
"9	c #F0A62B",
"0	c #F0CB28",
"a	c #EFC81D",
"b	c #F1902F",
"c	c #F18F2E",
"d	c #F0CC2B",
"e	c #F29132",
"f	c #F19030",
"g	c #313131",
"h	c #343434",
"i	c #353535",
"                ",
"            .+  ",
"           @@@# ",
"          $$$%& ",
"         **===- ",
"        ;>,')-- ",
"       !~{]^--  ",
"      /(_:<--   ",
"     [}|12--    ",
"    33456--     ",
"   7890a--      ",
"   bbcd--       ",
"  bbef--        ",
" gee---         ",
" hi--           ",
"  --            "};
