/* XPM */
static char * new_xpm[] = {
"16 16 31 1",
" 	c None",
".	c #96C5F5",
"+	c #89BDF4",
"@	c #F9F9F9",
"#	c #FAFAFA",
"$	c #89BEF4",
"%	c #7DB7F2",
"&	c #F6F6F6",
"*	c #7EB7F3",
"=	c #CEE0F7",
"-	c #72B1F1",
";	c #F3F3F3",
">	c #F4F4F4",
",	c #68ABF0",
"'	c #F1F1F1",
")	c #F0F0F0",
"!	c #60A7F0",
"~	c #EDEDED",
"{	c #59A3F0",
"]	c #EEEEEE",
"^	c #ECECEC",
"/	c #54A1F0",
"(	c #EBEBEB",
"_	c #EAEAEA",
":	c #5EA6F0",
"<	c #61A8F1",
"[	c #64A9F1",
"}	c #67ABF1",
"|	c #69ACF1",
"1	c #6CAEF2",
"2	c #6DAEF2",
"  .........     ",
"  +@######$$    ",
"  %&&&&&&&*=%   ",
"  -;>>>>>>----  ",
"  ,'''''''''),  ",
"  !)))))))))~!  ",
"  !)))))))))~!  ",
"  {]]]]]]]]]^{  ",
"  /(((((((((_/  ",
"  /(((((((((_/  ",
"  {(((((((((({  ",
"  :~~~~~~~~~~:  ",
"  <^^^^^^^^^^<  ",
"  [}|112221|}[  ",
"                ",
"                "};
